<svg width="362" height="79" viewBox="0 0 362 79" xmlns:xlink="http://www.w3.org/1999/xlink" xmlns="http://www.w3.org/2000/svg"><defs><linearGradient gradientUnits="objectBoundingBox" x1=".5" y1="0" x2=".5" y2="1" id="c"><stop offset="0%" stop-color="#FF8C49"/><stop offset="100%" stop-color="#FF5E00"/></linearGradient><clipPath id="b"><use xlink:href="#a" clip-rule="evenodd" fill-rule="evenodd"/></clipPath><path d="M362 0v79H0V0z" id="a"/></defs><path d="M362 0v79H0V0z" fill="none"/><path d="M26.512 79q-8.25 0-14.197-3.667-5.948-3.667-9.143-10.152Q0 58.67 0 50.264q0-8.532 3.221-14.992 3.246-6.486 9.168-10.153 5.946-3.666 14.049-3.666 6.789 0 11.968 2.494 5.204 2.47 8.3 6.985 3.097 4.49 3.519 10.551H37.76q-.769-4.041-3.592-6.735-2.825-2.72-7.557-2.719-5.997 0-9.713 4.79-3.692 4.764-3.692 13.22 0 8.532 3.667 13.395Q20.54 68.3 26.612 68.3q4.31 0 7.309-2.47 2.998-2.469 3.84-6.984h12.464q-.47 5.911-3.47 10.451-2.972 4.54-8.126 7.135Q33.475 79 26.512 79m39.84-75.408v71.312q0 .148-.014.294-.015.147-.044.291-.028.145-.071.286t-.1.277-.125.266-.151.252-.175.236-.198.218-.218.198-.236.175q-.123.082-.253.151-.13.07-.266.126t-.277.1q-.14.042-.285.07-.145.03-.291.044-.147.014-.294.014h-7.037q-.147 0-.294-.014t-.291-.043-.285-.072-.277-.099-.266-.126-.253-.15q-.122-.083-.236-.176-.114-.094-.218-.198t-.198-.218-.175-.236-.151-.252-.126-.266-.1-.277-.07-.286q-.03-.144-.044-.29-.014-.147-.014-.295V6.59q0-.147.014-.294.015-.146.044-.29.028-.145.07-.286.044-.141.1-.277t.126-.266.151-.253q.082-.122.175-.236.094-.114.198-.218t.218-.197.236-.176q.123-.082.253-.151.13-.07.266-.126t.277-.099.285-.071q.145-.03.291-.044.147-.014.294-.014zm5.758 74.31V27.177q0-.123.006-.245.006-.123.018-.245t.03-.244.042-.241.054-.24.065-.236.077-.234.088-.229.1-.224q.052-.11.11-.22.058-.107.121-.213.063-.105.132-.207.068-.102.14-.2.074-.1.152-.194.078-.095.16-.186.082-.09.17-.178.086-.086.177-.169.091-.082.186-.16t.193-.151.201-.141.207-.132.214-.12.22-.111q.11-.052.223-.1.114-.047.23-.088.115-.041.232-.077t.237-.065.24-.054.241-.042q.122-.018.244-.03t.245-.018q.122-.006.245-.006h3.033q.123 0 .245.006.123.006.245.018t.244.03.242.042.239.054.236.065.234.077q.115.041.228.088.114.047.225.1.11.052.219.11.108.058.213.121.106.063.208.132.102.068.2.14.1.074.194.152.095.078.186.16.09.083.178.17.086.086.169.177.082.091.16.186t.151.193.141.201.132.207.12.214.111.22.1.223q.046.114.088.23.041.115.077.232t.065.237q.03.12.054.24t.042.241.03.244.018.245.006.245v45.727q0 .122-.006.245-.006.122-.018.245-.012.122-.03.243t-.042.242-.054.24-.065.236-.077.233-.089.229-.099.224-.11.22-.121.213-.132.207-.14.201q-.074.099-.152.193-.078.095-.16.186-.083.091-.17.178-.086.087-.177.17-.091.082-.186.16-.095.077-.194.15-.098.074-.2.142t-.208.131-.213.121-.22.11-.224.1-.228.088-.234.077-.236.066q-.12.03-.24.053-.12.024-.241.042-.122.018-.244.03t-.245.018q-.122.007-.245.007zm6.541-63.634q-3.121 0-5.352-2.095-2.205-2.095-2.205-5.014 0-2.993 2.205-5.064Q75.529 0 78.651 0q3.097 0 5.303 2.095 2.23 2.07 2.23 5.064 0 2.919-2.23 5.014-2.205 2.095-5.303 2.095M115.034 79q-8.251 0-14.198-3.667-5.946-3.667-9.143-10.152-3.171-6.51-3.171-14.917 0-8.532 3.22-14.992 3.247-6.486 9.168-10.153 5.947-3.666 14.05-3.666 6.789 0 11.967 2.494 5.204 2.47 8.301 6.985 3.098 4.49 3.518 10.551h-12.463q-.768-4.041-3.593-6.735-2.825-2.72-7.557-2.719-5.997 0-9.713 4.79-3.692 4.764-3.692 13.22 0 8.532 3.667 13.395 3.668 4.865 9.738 4.865 4.311 0 7.309-2.47 2.998-2.469 3.841-6.984h12.463q-.47 5.911-3.469 10.451-2.973 4.54-8.127 7.135Q121.996 79 115.034 79m104.081 0q-8.326 0-14.372-3.517-6.045-3.543-9.291-9.953-3.222-6.411-3.222-15.167 0-8.606 3.222-15.116 3.245-6.51 9.143-10.153 5.897-3.642 13.826-3.642 6.814 0 12.562 2.969 5.774 2.943 9.242 9.18 3.494 6.21 3.494 15.99v4.04h-38.554q.099 7.134 3.939 11.126 3.841 3.99 10.184 3.99 4.212 0 7.285-1.82 3.097-1.821 4.435-5.363l12.166 1.397q-1.734 7.259-8.053 11.649Q228.803 79 219.115 79m-13.927-34.224h26.017q-.024-5.687-3.518-9.38-3.47-3.716-9.094-3.716-5.823 0-9.465 3.891-3.642 3.867-3.94 9.205m69.537-22.6v10.152h-10.927V61.14q0 3.968 1.735 5.214 1.734 1.247 4.187 1.247 1.215 0 2.23-.174a49 49 0 0 0 1.586-.325l2.205 10.253q-1.04.374-2.973.798-1.933.45-4.708.524-7.359.2-12.364-3.642-4.98-3.842-4.931-11.724V32.328h-7.854V22.176h7.854v-9.348q0-.196.02-.391.019-.196.057-.389.038-.192.095-.38t.133-.37q.075-.181.167-.354.093-.174.202-.337t.234-.315q.124-.152.263-.29.139-.14.291-.264.152-.125.315-.234t.337-.202.354-.167q.182-.075.37-.132t.38-.096q.193-.038.388-.057.196-.02.392-.02h9.035v13.346zm35.467 0v10.152h-10.927V61.14q0 3.968 1.735 5.214 1.734 1.247 4.187 1.247 1.214 0 2.23-.174a49 49 0 0 0 1.586-.325l2.205 10.253q-1.041.374-2.973.798-1.933.45-4.708.524-7.359.2-12.364-3.642-4.98-3.842-4.931-11.724V32.328h-7.855V22.176h7.855v-9.348q0-.196.019-.391.02-.196.058-.389.038-.192.095-.38t.132-.37.168-.354.202-.337.234-.315.263-.29q.139-.14.291-.264.152-.125.315-.234t.336-.202.355-.167.369-.132.381-.096.388-.057q.196-.02.392-.02h9.035v13.346zM337.395 79q-8.326 0-14.371-3.517-6.046-3.543-9.292-9.953-3.221-6.411-3.221-15.167 0-8.606 3.221-15.116 3.246-6.51 9.143-10.153 5.897-3.642 13.826-3.642 6.814 0 12.562 2.969 5.774 2.943 9.242 9.18 3.495 6.21 3.494 15.99v4.04h-38.554q.099 7.134 3.94 11.126 3.84 3.99 10.183 3.99 4.212 0 7.285-1.82 3.097-1.821 4.435-5.363l12.166 1.397q-1.735 7.259-8.053 11.649T337.395 79m-13.924-34.224h26.017q-.026-5.687-3.519-9.38-3.47-3.716-9.093-3.716-5.823 0-9.466 3.891-3.642 3.867-3.939 9.205" fill-rule="evenodd" clip-path="url(#b)"/><path d="M156.822 20.993 143 7.676V3.998q0-.196.019-.392.019-.195.057-.388t.096-.38q.057-.188.132-.37.075-.181.168-.355.092-.173.201-.336t.234-.315.264-.291.29-.263.315-.234.337-.202.355-.168.369-.132.381-.095q.192-.038.388-.058.195-.019.392-.019h5.775q.196 0 .391.02.195.018.388.057.192.038.379.095.188.056.369.131t.354.167q.173.093.336.201t.315.233.291.263.263.29q.125.15.234.314.109.162.202.335t.168.354.133.368q.057.188.096.38t.059.387.02.391zm27.317 30.243-40.1-39.431h-.145v56.917l13.38-12.224 5.81 14.01c1.053 2.539 3.916 3.723 6.396 2.645s3.637-4.008 2.584-6.547l-5.748-13.86zm-7.237-10.899-8.717-8.397 9.668-10.846q.14-.157.296-.299.156-.141.327-.266.17-.124.352-.23t.374-.193q.193-.086.393-.151.2-.066.406-.11t.416-.066.421-.022h6.342q.262 0 .521.037.259.038.51.112t.489.184.458.252.417.315q.197.172.367.371.171.2.311.42.14.222.247.46.107.24.178.492.072.252.106.512.035.26.032.521-.003.262-.043.52-.04.26-.117.51t-.189.487-.257.455-.32.413zm-7.184 14.817 9.257-.749 13.131 18.263q.161.223.289.466.128.242.222.5t.152.527.078.542q.021.274.003.548-.017.274-.071.543-.054.27-.145.528-.091.26-.216.504t-.283.47q-.157.224-.344.425t-.399.375-.447.317-.486.253-.516.184-.536.112-.547.038h-8.827q-.01 0-.017-.009l-5.04-7.074c.581-1.556.719-3.215.164-4.526zM143 79v-6.637l13.195-11.607.695 1.633v12.613A4 4 0 0 1 152.892 79z" fill="url(#c)" fill-rule="evenodd" clip-path="url(#b)"/></svg>