<?xml version="1.0" encoding="utf-8"?>
<svg width="361.99902px" height="79px" viewBox="0 0 361.99902 79" version="1.1" xmlns:xlink="http://www.w3.org/1999/xlink" xmlns="http://www.w3.org/2000/svg">
  <defs>
    <linearGradient gradientUnits="objectBoundingBox" x1="0.5" y1="0" x2="0.5" y2="1" id="gradient_1">
      <stop offset="0%" stop-color="#FF8C49" />
      <stop offset="100%" stop-color="#FF5E00" />
    </linearGradient>
    <filter id="filter_1">
      <feColorMatrix in="SourceGraphic" type="matrix" values="0 0 0 0 1 0 0 0 0 1 0 0 0 0 1 0 0 0 1 0" color-interpolation-filters="sRGB" />
    </filter>
  </defs>
  <g id="Group">
    <path d="M26.5124 79C21.0117 79 16.2791 77.7777 12.3146 75.3331C8.35015 72.8885 5.30247 69.5043 3.17157 65.1806C1.05719 60.8402 0 55.8679 0 50.2636C0 44.5762 1.07371 39.579 3.22113 35.2718C5.38507 30.9481 8.441 27.5639 12.389 25.1193C16.3534 22.6747 21.0364 21.4524 26.438 21.4524C30.9641 21.4524 34.9534 22.2839 38.4058 23.9469C41.8747 25.5933 44.6415 27.9214 46.7063 30.9314C48.7712 33.9248 49.944 37.442 50.2248 41.4831L37.7615 41.4831C37.2495 38.789 36.0519 36.544 34.1687 34.748C32.2856 32.9353 29.7665 32.029 26.6115 32.029C22.614 32.029 19.3763 33.6255 16.8985 36.8184C14.4373 39.9947 13.2066 44.4016 13.2066 50.0391C13.2066 55.7265 14.429 60.1917 16.8738 63.4345C19.3185 66.6773 22.5644 68.2987 26.6115 68.2987C29.4857 68.2987 31.9222 67.4755 33.921 65.8291C35.9197 64.1828 37.1999 61.8546 37.7615 58.8446L50.2248 58.8446C49.911 62.7859 48.7547 66.2698 46.7559 69.2965C44.7737 72.3231 42.0646 74.7012 38.6287 76.4307C35.1929 78.1435 31.1541 79 26.5124 79L26.5124 79ZM66.352 3.59199L66.352 74.9044Q66.352 75.0517 66.3376 75.1982Q66.3231 75.3448 66.2944 75.4893Q66.2657 75.6337 66.2229 75.7747Q66.1802 75.9156 66.1238 76.0517Q66.0674 76.1877 65.998 76.3176Q65.9286 76.4475 65.8467 76.57Q65.7649 76.6925 65.6715 76.8063Q65.5781 76.9202 65.4739 77.0243Q65.3698 77.1284 65.2559 77.2219Q65.1421 77.3153 65.0196 77.3971Q64.8971 77.479 64.7672 77.5484Q64.6373 77.6178 64.5013 77.6742Q64.3652 77.7306 64.2243 77.7733Q64.0833 77.8161 63.9389 77.8448Q63.7944 77.8735 63.6478 77.888Q63.5013 77.9024 63.354 77.9024L56.3169 77.9024Q56.1696 77.9024 56.023 77.888Q55.8765 77.8735 55.732 77.8448Q55.5875 77.8161 55.4466 77.7733Q55.3057 77.7306 55.1696 77.6742Q55.0335 77.6178 54.9036 77.5484Q54.7737 77.479 54.6513 77.3971Q54.5288 77.3153 54.415 77.2219Q54.3011 77.1284 54.197 77.0243Q54.0928 76.9202 53.9994 76.8063Q53.9059 76.6925 53.8241 76.57Q53.7423 76.4475 53.6729 76.3176Q53.6034 76.1877 53.5471 76.0517Q53.4907 75.9156 53.4479 75.7747Q53.4052 75.6337 53.3764 75.4892Q53.3477 75.3448 53.3333 75.1982Q53.3189 75.0517 53.3188 74.9044L53.3188 6.59004Q53.3189 6.44276 53.3333 6.29618Q53.3477 6.14961 53.3765 6.00515Q53.4052 5.8607 53.4479 5.71975Q53.4907 5.57881 53.5471 5.44274Q53.6034 5.30666 53.6729 5.17677Q53.7423 5.04688 53.8241 4.92441Q53.9059 4.80195 53.9994 4.6881Q54.0928 4.57425 54.197 4.4701Q54.3011 4.36596 54.415 4.27252Q54.5288 4.17908 54.6513 4.09726Q54.7737 4.01543 54.9036 3.946Q55.0335 3.87657 55.1696 3.82021Q55.3057 3.76384 55.4466 3.72109Q55.5875 3.67833 55.732 3.6496Q55.8765 3.62087 56.023 3.60643Q56.1696 3.59199 56.3169 3.59199L66.352 3.59199L66.352 3.59199ZM72.1099 77.9025L72.1099 27.1759Q72.1099 27.0532 72.1159 26.9306Q72.1219 26.808 72.1339 26.6858Q72.146 26.5637 72.164 26.4423Q72.182 26.3209 72.2059 26.2005Q72.2299 26.0801 72.2597 25.961Q72.2895 25.842 72.3252 25.7245Q72.3608 25.607 72.4021 25.4915Q72.4435 25.3759 72.4905 25.2625Q72.5374 25.1491 72.5899 25.0382Q72.6424 24.9272 72.7003 24.8189Q72.7581 24.7107 72.8212 24.6054Q72.8843 24.5001 72.9525 24.3981Q73.0207 24.296 73.0938 24.1974Q73.1669 24.0988 73.2448 24.004Q73.3227 23.9091 73.4051 23.8181Q73.4875 23.7272 73.5743 23.6404Q73.6611 23.5536 73.7521 23.4712Q73.843 23.3887 73.9379 23.3109Q74.0328 23.233 74.1314 23.1599Q74.2299 23.0868 74.332 23.0186Q74.4341 22.9504 74.5394 22.8873Q74.6446 22.8242 74.7529 22.7663Q74.8611 22.7085 74.9721 22.656Q75.083 22.6035 75.1964 22.5565Q75.3098 22.5096 75.4254 22.4682Q75.541 22.4269 75.6584 22.3912Q75.7759 22.3556 75.895 22.3258Q76.014 22.2959 76.1344 22.272Q76.2548 22.2481 76.3762 22.23Q76.4976 22.212 76.6198 22.2Q76.7419 22.188 76.8645 22.1819Q76.9871 22.1759 77.1099 22.1759L80.143 22.1759Q80.2658 22.1759 80.3884 22.1819Q80.511 22.188 80.6331 22.2Q80.7553 22.212 80.8767 22.23Q80.9981 22.2481 81.1185 22.272Q81.2389 22.2959 81.3579 22.3258Q81.477 22.3556 81.5945 22.3912Q81.7119 22.4269 81.8275 22.4682Q81.943 22.5096 82.0564 22.5565Q82.1698 22.6035 82.2808 22.656Q82.3918 22.7085 82.5 22.7663Q82.6083 22.8242 82.7135 22.8873Q82.8188 22.9504 82.9209 23.0186Q83.0229 23.0868 83.1215 23.1599Q83.2201 23.233 83.315 23.3109Q83.4099 23.3887 83.5008 23.4712Q83.5918 23.5536 83.6786 23.6404Q83.7654 23.7272 83.8478 23.8181Q83.9302 23.9091 84.0081 24.004Q84.0859 24.0988 84.1591 24.1974Q84.2322 24.296 84.3004 24.3981Q84.3686 24.5001 84.4317 24.6054Q84.4948 24.7107 84.5526 24.8189Q84.6105 24.9272 84.663 25.0381Q84.7155 25.1491 84.7624 25.2625Q84.8094 25.3759 84.8508 25.4915Q84.8921 25.607 84.9277 25.7245Q84.9634 25.842 84.9932 25.961Q85.023 26.0801 85.047 26.2005Q85.0709 26.3209 85.0889 26.4423Q85.1069 26.5637 85.119 26.6858Q85.131 26.808 85.137 26.9306Q85.143 27.0532 85.143 27.1759L85.143 72.9025Q85.143 73.0252 85.137 73.1478Q85.131 73.2704 85.119 73.3926Q85.1069 73.5147 85.0889 73.6361Q85.0709 73.7576 85.047 73.8779Q85.023 73.9983 84.9932 74.1174Q84.9634 74.2365 84.9277 74.3539Q84.8921 74.4714 84.8508 74.5869Q84.8094 74.7025 84.7624 74.8159Q84.7155 74.9293 84.663 75.0402Q84.6105 75.1512 84.5526 75.2595Q84.4948 75.3677 84.4317 75.473Q84.3686 75.5783 84.3004 75.6803Q84.2322 75.7824 84.1591 75.881Q84.0859 75.9796 84.0081 76.0745Q83.9302 76.1693 83.8478 76.2603Q83.7654 76.3512 83.6786 76.438Q83.5918 76.5248 83.5008 76.6072Q83.4099 76.6897 83.315 76.7675Q83.2201 76.8454 83.1215 76.9185Q83.0229 76.9916 82.9209 77.0598Q82.8188 77.128 82.7135 77.1911Q82.6083 77.2542 82.5 77.3121Q82.3918 77.3699 82.2808 77.4224Q82.1698 77.4749 82.0564 77.5219Q81.943 77.5689 81.8275 77.6102Q81.7119 77.6516 81.5945 77.6872Q81.477 77.7228 81.3579 77.7526Q81.2389 77.7825 81.1185 77.8064Q80.9981 77.8304 80.8767 77.8484Q80.7553 77.8664 80.6331 77.8784Q80.511 77.8904 80.3884 77.8965Q80.2658 77.9025 80.143 77.9025L72.1099 77.9025L72.1099 77.9025ZM78.651 14.2684C76.5697 14.2684 74.7857 13.5699 73.299 12.173C71.8288 10.7761 71.0938 9.10483 71.0938 7.15914C71.0938 5.16356 71.8288 3.47564 73.299 2.09536C74.7857 0.698455 76.5697 0 78.651 0C80.7158 0 82.4833 0.698455 83.9535 2.09536C85.4401 3.47564 86.1835 5.16356 86.1835 7.15914C86.1835 9.10483 85.4401 10.7761 83.9535 12.173C82.4833 13.5699 80.7158 14.2684 78.651 14.2684L78.651 14.2684ZM115.034 79C109.533 79 104.801 77.7777 100.836 75.3331C96.8716 72.8885 93.824 69.5044 91.6931 65.1806C89.5787 60.8402 88.5215 55.8679 88.5215 50.2636C88.5215 44.5762 89.5952 39.579 91.7426 35.2718C93.9066 30.9481 96.9625 27.5639 100.91 25.1193C104.875 22.6747 109.558 21.4524 114.96 21.4524C119.486 21.4524 123.475 22.2839 126.927 23.9469C130.396 25.5933 133.163 27.9214 135.228 30.9314C137.293 33.9248 138.466 37.442 138.746 41.4831L126.283 41.4831C125.771 38.789 124.573 36.544 122.69 34.748C120.807 32.9353 118.288 32.029 115.133 32.029C111.135 32.029 107.898 33.6255 105.42 36.8184C102.959 39.9947 101.728 44.4016 101.728 50.0391C101.728 55.7265 102.951 60.1917 105.395 63.4345C107.84 66.6773 111.086 68.2987 115.133 68.2987C118.007 68.2987 120.444 67.4755 122.442 65.8292C124.441 64.1828 125.721 61.8546 126.283 58.8446L138.746 58.8446C138.432 62.7859 137.276 66.2699 135.277 69.2965C133.295 72.3231 130.586 74.7012 127.15 76.4307C123.714 78.1436 119.676 79 115.034 79L115.034 79ZM219.115 79C213.564 79 208.774 77.8276 204.743 75.4828C200.713 73.1213 197.616 69.8037 195.452 65.5298C193.304 61.2559 192.23 56.2005 192.23 50.3634C192.23 44.6261 193.304 39.5873 195.452 35.2469C197.616 30.9065 200.663 27.5223 204.595 25.0944C208.526 22.6664 213.135 21.4524 218.421 21.4524C222.963 21.4524 227.151 22.4419 230.983 24.4209C234.832 26.3832 237.913 29.4431 240.225 33.6005C242.554 37.7414 243.719 43.0712 243.719 49.5901L243.719 53.6312L205.165 53.6312C205.231 58.3873 206.544 62.0957 209.104 64.7565C211.665 67.4173 215.059 68.7477 219.288 68.7477C222.096 68.7477 224.524 68.1407 226.573 66.9267C228.637 65.7127 230.116 63.925 231.008 61.5636L243.174 62.9605C242.018 67.7998 239.333 71.6828 235.121 74.6097C230.909 77.5366 225.573 79 219.115 79L219.115 79ZM205.188 44.7757L231.205 44.7757C231.189 40.9841 230.016 37.8577 227.687 35.3965C225.374 32.9187 222.343 31.6798 218.593 31.6798C214.711 31.6798 211.556 32.9769 209.128 35.5712C206.7 38.1488 205.387 41.217 205.188 44.7757L205.188 44.7757ZM274.725 22.1758L274.725 32.3284C274.725 32.3284 263.798 32.3284 263.798 32.3284C263.798 32.3284 263.798 61.1395 263.798 61.1395C263.798 63.7837 264.377 65.5215 265.533 66.353C266.689 67.1845 268.085 67.6002 269.72 67.6002C270.53 67.6002 271.273 67.542 271.95 67.4256C272.644 67.2926 273.173 67.1845 273.536 67.1013C273.536 67.1013 275.741 77.3536 275.741 77.3536C275.048 77.6031 274.056 77.8691 272.768 78.1519C271.48 78.4512 269.91 78.6258 268.06 78.6757C263.154 78.8088 259.033 77.5948 255.696 75.0338C252.376 72.4728 250.732 68.5648 250.765 63.3097C250.765 63.3097 250.765 32.3284 250.765 32.3284L242.911 32.3284L242.911 22.1758L250.765 22.1758L250.765 12.8284Q250.765 12.632 250.785 12.4366Q250.804 12.2411 250.842 12.0485Q250.88 11.8558 250.937 11.6679Q250.994 11.4799 251.07 11.2985Q251.145 11.117 251.237 10.9438Q251.33 10.7706 251.439 10.6072Q251.548 10.4439 251.673 10.2921Q251.797 10.1403 251.936 10.0014Q252.075 9.86251 252.227 9.73791Q252.379 9.61331 252.542 9.50419Q252.705 9.39507 252.879 9.30248Q253.052 9.20989 253.233 9.13473Q253.415 9.05956 253.603 9.00255Q253.791 8.94553 253.983 8.90722Q254.176 8.8689 254.371 8.84965Q254.567 8.8304 254.763 8.8304L263.798 8.8304L263.798 22.1758L274.725 22.1758L274.725 22.1758ZM310.192 22.1758L310.192 32.3284C310.192 32.3284 299.265 32.3284 299.265 32.3284C299.265 32.3284 299.265 61.1395 299.265 61.1395C299.265 63.7837 299.843 65.5215 301 66.353C302.156 67.1845 303.552 67.6002 305.187 67.6002C305.997 67.6002 306.74 67.542 307.417 67.4256C308.111 67.2926 308.64 67.1845 309.003 67.1013C309.003 67.1013 311.208 77.3536 311.208 77.3536C310.514 77.6031 309.523 77.8691 308.235 78.1519C306.946 78.4512 305.377 78.6258 303.527 78.6757C298.621 78.8088 294.5 77.5948 291.163 75.0338C287.843 72.4728 286.199 68.5648 286.232 63.3097C286.232 63.3097 286.232 32.3284 286.232 32.3284L278.377 32.3284L278.377 22.1758L286.232 22.1758L286.232 12.8284Q286.232 12.632 286.251 12.4366Q286.271 12.2411 286.309 12.0485Q286.347 11.8558 286.404 11.6679Q286.461 11.4799 286.536 11.2985Q286.612 11.117 286.704 10.9438Q286.797 10.7706 286.906 10.6072Q287.015 10.4439 287.14 10.2921Q287.264 10.1403 287.403 10.0014Q287.542 9.86251 287.694 9.73791Q287.846 9.61331 288.009 9.50419Q288.172 9.39507 288.345 9.30248Q288.519 9.20989 288.7 9.13473Q288.882 9.05956 289.069 9.00255Q289.257 8.94553 289.45 8.90722Q289.643 8.8689 289.838 8.84965Q290.034 8.8304 290.23 8.8304L299.265 8.8304L299.265 22.1758L310.192 22.1758L310.192 22.1758ZM337.395 79C331.845 79 327.054 77.8276 323.024 75.4828C318.993 73.1213 315.896 69.8037 313.732 65.5298C311.584 61.2559 310.511 56.2005 310.511 50.3634C310.511 44.6261 311.584 39.5873 313.732 35.2469C315.896 30.9065 318.944 27.5223 322.875 25.0944C326.806 22.6664 331.415 21.4524 336.701 21.4524C341.244 21.4524 345.431 22.4419 349.263 24.4209C353.112 26.3832 356.193 29.4431 358.506 33.6005C360.835 37.7414 361.999 43.0712 361.999 49.5901L361.999 53.6312L323.445 53.6312C323.511 58.3873 324.824 62.0957 327.385 64.7565C329.945 67.4173 333.339 68.7477 337.568 68.7477C340.376 68.7477 342.805 68.1407 344.853 66.9267C346.918 65.7127 348.396 63.925 349.288 61.5636L361.454 62.9605C360.298 67.7998 357.614 71.6828 353.401 74.6097C349.189 77.5366 343.853 79 337.395 79L337.395 79ZM323.471 44.7757L349.488 44.7757C349.471 40.9841 348.298 37.8577 345.969 35.3965C343.656 32.9187 340.625 31.6798 336.876 31.6798C332.994 31.6798 329.839 32.9769 327.41 35.5712C324.982 38.1488 323.669 41.217 323.471 44.7757L323.471 44.7757Z" id="Shape" fill="#FFFFFF" fill-rule="evenodd" stroke="none" />
    <g id="Group" transform="translate(142.99951 0)" filter="url(#filter_1)">
      <path d="M13.8226 20.9931L0 7.67661L0 3.99805Q0 3.80164 0.0192517 3.60617Q0.0385034 3.4107 0.0768213 3.21807Q0.115139 3.02543 0.172155 2.83748Q0.22917 2.64952 0.304333 2.46806Q0.379497 2.2866 0.472084 2.11338Q0.564672 1.94016 0.673792 1.77685Q0.782913 1.61354 0.907515 1.46171Q1.03212 1.30988 1.171 1.171Q1.30988 1.03212 1.46171 0.907515Q1.61354 0.782913 1.77685 0.673792Q1.94016 0.564672 2.11338 0.472084Q2.2866 0.379497 2.46806 0.304333Q2.64952 0.22917 2.83748 0.172155Q3.02543 0.115139 3.21807 0.0768213Q3.4107 0.0385034 3.60617 0.0192517Q3.80164 0 3.99805 0L9.77355 0Q9.96958 0 10.1647 0.0191783Q10.3598 0.0383565 10.5521 0.076529Q10.7443 0.114702 10.932 0.171502Q11.1196 0.228303 11.3008 0.303186Q11.4819 0.37807 11.6549 0.470318Q11.8279 0.562567 11.991 0.671295Q12.1541 0.780023 12.3058 0.904187Q12.4575 1.02835 12.5963 1.16676Q12.7352 1.30517 12.8598 1.4565Q12.9844 1.60783 13.0936 1.77062Q13.2028 1.93341 13.2956 2.10611Q13.3884 2.27881 13.4638 2.45975Q13.5392 2.64069 13.5966 2.82815Q13.654 3.0156 13.6927 3.20777Q13.7315 3.39994 13.7512 3.59498Q13.771 3.79001 13.7716 3.98605L13.8226 20.9931ZM41.1393 51.2359L1.03972 11.8046L0.894654 11.8046L0.894654 68.7221L14.2749 56.4983L20.0846 70.5081C21.1374 73.0469 24.0004 74.2311 26.4808 73.1534C28.9607 72.0758 30.1177 69.145 29.0649 66.6063L23.317 52.7458L41.1393 51.2359ZM33.9023 40.3375L25.1856 31.94L34.8537 21.0944Q34.994 20.937 35.15 20.7953Q35.306 20.6536 35.4761 20.5291Q35.6461 20.4046 35.8283 20.2986Q36.0105 20.1927 36.2029 20.1064Q36.3952 20.0202 36.5956 19.9547Q36.7959 19.8892 37.002 19.8451Q37.2081 19.8011 37.4177 19.7789Q37.6273 19.7567 37.8381 19.7567L44.1803 19.7567Q44.4422 19.7567 44.7014 19.7943Q44.9606 19.8318 45.2117 19.9061Q45.4629 19.9804 45.7008 20.0899Q45.9387 20.1994 46.1585 20.3418Q46.3783 20.4843 46.5753 20.6568Q46.7724 20.8293 46.9428 21.0282Q47.1131 21.2272 47.2532 21.4485Q47.3933 21.6698 47.5002 21.9089Q47.6071 22.148 47.6786 22.3999Q47.7502 22.6519 47.7849 22.9115Q47.8196 23.1711 47.8168 23.433Q47.8139 23.6949 47.7736 23.9536Q47.7332 24.2124 47.6562 24.4627Q47.5792 24.7131 47.4671 24.9498Q47.355 25.1865 47.2102 25.4047Q47.0654 25.6229 46.8907 25.8181L33.9023 40.3375ZM26.7186 55.1538L35.9757 54.4052L49.1068 72.668Q49.2671 72.8909 49.3954 73.1336Q49.5237 73.3764 49.6176 73.6344Q49.7115 73.8924 49.7693 74.1608Q49.827 74.4292 49.8476 74.703Q49.8681 74.9768 49.851 75.2509Q49.8339 75.5249 49.7795 75.794Q49.7251 76.0631 49.6344 76.3223Q49.5437 76.5815 49.4185 76.8258Q49.2932 77.0701 49.1357 77.2951Q48.9783 77.52 48.7915 77.7212Q48.6048 77.9225 48.3923 78.0964Q48.1797 78.2702 47.9455 78.4134Q47.7112 78.5566 47.4595 78.6664Q47.2079 78.7762 46.9436 78.8505Q46.6792 78.9249 46.4073 78.9624Q46.1353 79 45.8607 79L37.0338 79Q37.0232 79 37.017 78.9913L31.9766 71.9169C32.5571 70.3606 32.6948 68.7021 32.1404 67.3908L26.7186 55.1538ZM0 79L0 72.3626L13.1952 60.7561L13.8903 62.3901L13.8903 75.0019C13.8903 77.21 12.1003 79 9.89224 79L0 79Z" id="Shape" fill="url(#gradient_1)" fill-rule="evenodd" stroke="none" />
    </g>
  </g>
</svg>